<svg xmlns="http://www.w3.org/2000/svg" width="1200" height="600" style="background-color: rgb(245, 241, 237)" data-real-to-screen-transform="matrix(94.0738688924,0,0,-94.0738688924,360.8367886317,280.2483163391)" data-software-used-string="@tscircuit/core@0.0.611"><style>
              .boundary { fill: rgb(245, 241, 237); }
              .schematic-boundary { fill: none; stroke: #fff; }
              .component { fill: none; stroke: rgb(132, 0, 0); }
              .chip { fill: rgb(255, 255, 194); stroke: rgb(132, 0, 0); }
              .component-pin { fill: none; stroke: rgb(132, 0, 0); }
              .trace:hover {
                filter: invert(1);
              }
              .trace:hover .trace-crossing-outline {
                opacity: 0;
              }
              .trace:hover .trace-junction {
                filter: invert(1);
              }
              .text { font-family: sans-serif; fill: rgb(0, 150, 0); }
              .pin-number { fill: rgb(169, 0, 0); }
              .port-label { fill: rgb(0, 100, 100); }
              .component-name { fill: rgb(0, 100, 100); }
            </style><rect class="boundary" x="0" y="0" width="1200" height="600"/><g data-circuit-json-type="schematic_component" data-schematic-component-id="schematic_component_0"><rect class="component chip" x="342.02201485322" y="242.61876878213997" width="37.629547556960006" height="75.25909511392001" stroke-width="1.881477377848px" fill="rgb(255, 255, 194)" stroke="rgb(132, 0, 0)"/><rect class="component-overlay" x="342.02201485322" y="242.61876878213997" width="37.629547556960006" height="75.25909511392001" fill="transparent"/><text x="342.02201485322" y="330.107466852072" fill="#006464" text-anchor="start" dominant-baseline="middle" font-family="sans-serif" font-size="16.933296400632px" transform="rotate(0, 342.02201485322, 330.107466852072)"></text><text x="342.02201485322" y="230.38916582612796" fill="#006464" text-anchor="start" dominant-baseline="middle" font-family="sans-serif" font-size="16.933296400632px" transform="rotate(0, 342.02201485322, 230.38916582612796)">U1</text><line class="component-pin" x1="415.399632589292" y1="261.43354256061997" x2="379.65156241018" y2="261.43354256061997" stroke-width="1.881477377848px"/><g data-schematic-port-id="source_port_0"><rect x="415.399632589292" y="259.55206518277197" width="3.762954755696" height="3.762954755696" opacity="0"/></g><text class="pin-number" x="398.46633618866" y="259.55206518277197" style="font-family: sans-serif;" fill="rgb(169, 0, 0)" text-anchor="middle" dominant-baseline="auto" font-size="14.11108033386px" transform="">1</text><line class="component-pin" x1="415.399632589292" y1="280.2483163391" x2="379.65156241018" y2="280.2483163391" stroke-width="1.881477377848px"/><g data-schematic-port-id="source_port_1"><rect x="415.399632589292" y="278.366838961252" width="3.762954755696" height="3.762954755696" opacity="0"/></g><text class="pin-number" x="398.46633618866" y="278.366838961252" style="font-family: sans-serif;" fill="rgb(169, 0, 0)" text-anchor="middle" dominant-baseline="auto" font-size="14.11108033386px" transform="">2</text><line class="component-pin" x1="415.399632589292" y1="299.06309011758" x2="379.65156241018" y2="299.06309011758" stroke-width="1.881477377848px"/><g data-schematic-port-id="source_port_2"><rect x="415.399632589292" y="297.181612739732" width="3.762954755696" height="3.762954755696" opacity="0"/></g><text class="pin-number" x="398.46633618866" y="297.181612739732" style="font-family: sans-serif;" fill="rgb(169, 0, 0)" text-anchor="middle" dominant-baseline="auto" font-size="14.11108033386px" transform="">3</text></g><g data-circuit-json-type="schematic_component" data-schematic-component-id="schematic_component_1"><rect class="component-overlay" x="517.7837753934418" y="98.74682213245302" width="24.890384082705395" height="99.561508108661" fill="transparent"/><path d="M 530.2289674347945 98.74682213245302 L 530.2289674347945 123.6371968077715" stroke="rgb(132, 0, 0)" fill="none" stroke-width="1.881477377848px" stroke-linecap="round"/><path d="M 530.2289674347945 173.41794615840865 L 530.2289674347945 198.30833024111402" stroke="rgb(132, 0, 0)" fill="none" stroke-width="1.881477377848px" stroke-linecap="round"/><path d="M 542.6741594761472 148.52756207570314 L 542.6741594761472 173.41793675102164 L 517.7837753934418 173.41793675102164 L 517.7837753934418 123.63717799299762 L 542.6741594761472 123.63717799299762 L 542.6741594761472 148.527562075703" stroke="rgb(132, 0, 0)" fill="none" stroke-width="1.881477377848px" stroke-linecap="round"/><text x="547.4721384558644" y="131.84678816133896" fill="rgb(15, 15, 15)" font-family="sans-serif" text-anchor="start" dominant-baseline="middle" font-size="16.933296400632px">R1_1</text><text x="547.4721384558644" y="161.95042620690697" fill="rgb(15, 15, 15)" font-family="sans-serif" text-anchor="start" dominant-baseline="middle" font-size="16.933296400632px">1kΩ</text></g><g data-circuit-json-type="schematic_component" data-schematic-component-id="schematic_component_2"><rect class="component-overlay" x="517.7837753934418" y="286.89455991725305" width="24.890384082705395" height="99.56150810866097" fill="transparent"/><path d="M 530.2289674347945 286.89455991725305 L 530.2289674347945 311.7849345925715" stroke="rgb(132, 0, 0)" fill="none" stroke-width="1.881477377848px" stroke-linecap="round"/><path d="M 530.2289674347945 361.5656839432087 L 530.2289674347945 386.456068025914" stroke="rgb(132, 0, 0)" fill="none" stroke-width="1.881477377848px" stroke-linecap="round"/><path d="M 542.6741594761472 336.6752998605032 L 542.6741594761472 361.5656745358217 L 517.7837753934418 361.5656745358217 L 517.7837753934418 311.78491577779766 L 542.6741594761472 311.78491577779766 L 542.6741594761472 336.675299860503" stroke="rgb(132, 0, 0)" fill="none" stroke-width="1.881477377848px" stroke-linecap="round"/><text x="547.4721384558644" y="319.994525946139" fill="rgb(15, 15, 15)" font-family="sans-serif" text-anchor="start" dominant-baseline="middle" font-size="16.933296400632px">R1_2</text><text x="547.4721384558644" y="350.098163991707" fill="rgb(15, 15, 15)" font-family="sans-serif" text-anchor="start" dominant-baseline="middle" font-size="16.933296400632px">1kΩ</text></g><g data-circuit-json-type="schematic_component" data-schematic-component-id="schematic_component_3"><rect class="component-overlay" x="442.40625068597285" y="117.59624331684596" width="24.89038408270534" height="99.56150810866102" fill="transparent"/><path d="M 454.8514427273255 217.15775142550697 L 454.8514427273255 192.26737675018848" stroke="rgb(132, 0, 0)" fill="none" stroke-width="1.881477377848px" stroke-linecap="round"/><path d="M 454.85144272732555 142.4866273995513 L 454.85144272732555 117.59624331684596" stroke="rgb(132, 0, 0)" fill="none" stroke-width="1.881477377848px" stroke-linecap="round"/><path d="M 442.40625068597285 167.37701148225682 L 442.40625068597285 142.48663680693832 L 467.2966347686782 142.48663680693832 L 467.2966347686782 192.26739556496233 L 442.40625068597285 192.26739556496233 L 442.40625068597285 167.377011482257" stroke="rgb(132, 0, 0)" fill="none" stroke-width="1.881477377848px" stroke-linecap="round"/><text x="480.7797767313751" y="153.954147351053" fill="rgb(15, 15, 15)" font-family="sans-serif" text-anchor="start" dominant-baseline="middle" font-size="16.933296400632px">R2</text><text x="480.7797767313751" y="184.057785396621" fill="rgb(15, 15, 15)" font-family="sans-serif" text-anchor="start" dominant-baseline="middle" font-size="16.933296400632px">1kΩ</text></g><g data-circuit-json-type="schematic_component" data-schematic-component-id="schematic_component_4"><rect class="component-overlay" x="542.9681403164357" y="399.21455427283905" width="49.78074935063705" height="99.56150810866103" fill="transparent"/><path d="M 567.8585149917544 498.7760623815001 L 567.8585149917544 456.46242637419726" stroke="rgb(132, 0, 0)" fill="none" stroke-width="1.881477377848px" stroke-linecap="round"/><path d="M 567.8585149917544 441.52819968752874 L 567.8585149917544 399.21455427283905" stroke="rgb(132, 0, 0)" fill="none" stroke-width="1.881477377848px" stroke-linecap="round"/><path d="M 592.7488896670727 456.4624263741972 L 542.9681403164357 456.46242637419726" stroke="rgb(132, 0, 0)" fill="none" stroke-width="1.881477377848px" stroke-linecap="round"/><path d="M 592.7488896670727 441.52819968752874 L 542.9681403164357 441.52819968752874" stroke="rgb(132, 0, 0)" fill="none" stroke-width="1.881477377848px" stroke-linecap="round"/><text x="585.936906746705" y="430.87233989694" fill="rgb(15, 15, 15)" font-family="sans-serif" text-anchor="start" dominant-baseline="auto" font-size="16.933296400632px">C3_1</text><text x="585.936906746705" y="468.2902207939" fill="rgb(15, 15, 15)" font-family="sans-serif" text-anchor="start" dominant-baseline="hanging" font-size="16.933296400632px">100nF</text></g><g data-circuit-json-type="schematic_component" data-schematic-component-id="schematic_component_5"><rect class="component-overlay" x="637.0420092088357" y="399.21455427283905" width="49.78074935063705" height="99.56150810866103" fill="transparent"/><path d="M 661.9323838841544 498.7760623815001 L 661.9323838841544 456.46242637419726" stroke="rgb(132, 0, 0)" fill="none" stroke-width="1.881477377848px" stroke-linecap="round"/><path d="M 661.9323838841544 441.52819968752874 L 661.9323838841544 399.21455427283905" stroke="rgb(132, 0, 0)" fill="none" stroke-width="1.881477377848px" stroke-linecap="round"/><path d="M 686.8227585594727 456.4624263741972 L 637.0420092088357 456.46242637419726" stroke="rgb(132, 0, 0)" fill="none" stroke-width="1.881477377848px" stroke-linecap="round"/><path d="M 686.8227585594727 441.52819968752874 L 637.0420092088357 441.52819968752874" stroke="rgb(132, 0, 0)" fill="none" stroke-width="1.881477377848px" stroke-linecap="round"/><text x="680.010775639105" y="430.87233989694" fill="rgb(15, 15, 15)" font-family="sans-serif" text-anchor="start" dominant-baseline="auto" font-size="16.933296400632px">C3_2</text><text x="680.010775639105" y="468.2902207939" fill="rgb(15, 15, 15)" font-family="sans-serif" text-anchor="start" dominant-baseline="hanging" font-size="16.933296400632px">100nF</text></g><g data-circuit-json-type="schematic_component" data-schematic-component-id="schematic_component_6"><rect class="component-overlay" x="731.1158781012357" y="399.21455427283905" width="49.78074935063705" height="99.56150810866103" fill="transparent"/><path d="M 756.0062527765544 498.7760623815001 L 756.0062527765544 456.46242637419726" stroke="rgb(132, 0, 0)" fill="none" stroke-width="1.881477377848px" stroke-linecap="round"/><path d="M 756.0062527765544 441.52819968752874 L 756.0062527765544 399.21455427283905" stroke="rgb(132, 0, 0)" fill="none" stroke-width="1.881477377848px" stroke-linecap="round"/><path d="M 780.8966274518727 456.4624263741972 L 731.1158781012357 456.46242637419726" stroke="rgb(132, 0, 0)" fill="none" stroke-width="1.881477377848px" stroke-linecap="round"/><path d="M 780.8966274518727 441.52819968752874 L 731.1158781012357 441.52819968752874" stroke="rgb(132, 0, 0)" fill="none" stroke-width="1.881477377848px" stroke-linecap="round"/><text x="774.084644531505" y="430.87233989694" fill="rgb(15, 15, 15)" font-family="sans-serif" text-anchor="start" dominant-baseline="auto" font-size="16.933296400632px">C3_3</text><text x="774.084644531505" y="468.2902207939" fill="rgb(15, 15, 15)" font-family="sans-serif" text-anchor="start" dominant-baseline="hanging" font-size="16.933296400632px">100nF</text></g><g data-circuit-json-type="schematic_component" data-schematic-component-id="schematic_component_7"><rect class="component-overlay" x="825.1897469936357" y="399.21455427283905" width="49.78074935063705" height="99.56150810866103" fill="transparent"/><path d="M 850.0801216689545 498.7760623815001 L 850.0801216689545 456.46242637419726" stroke="rgb(132, 0, 0)" fill="none" stroke-width="1.881477377848px" stroke-linecap="round"/><path d="M 850.0801216689545 441.52819968752874 L 850.0801216689545 399.21455427283905" stroke="rgb(132, 0, 0)" fill="none" stroke-width="1.881477377848px" stroke-linecap="round"/><path d="M 874.9704963442728 456.4624263741972 L 825.1897469936357 456.46242637419726" stroke="rgb(132, 0, 0)" fill="none" stroke-width="1.881477377848px" stroke-linecap="round"/><path d="M 874.9704963442728 441.52819968752874 L 825.1897469936357 441.52819968752874" stroke="rgb(132, 0, 0)" fill="none" stroke-width="1.881477377848px" stroke-linecap="round"/><text x="868.158513423905" y="430.87233989694" fill="rgb(15, 15, 15)" font-family="sans-serif" text-anchor="start" dominant-baseline="auto" font-size="16.933296400632px">C3_4</text><text x="868.158513423905" y="468.2902207939" fill="rgb(15, 15, 15)" font-family="sans-serif" text-anchor="start" dominant-baseline="hanging" font-size="16.933296400632px">100nF</text></g><g class="trace" data-circuit-json-type="schematic_trace" data-schematic-trace-id="schematic_trace_0"><path d="M 530.1440469533452 200.40694892313942 L 530.1440469533452 261.43354256061997 L 417.28110996714 261.43354256061997" class="trace-invisible-hover-outline" stroke="rgb(0, 150, 0)" fill="none" stroke-width="15.051819022784px" stroke-linecap="round" opacity="0" stroke-linejoin="round"/><path d="M 530.1440469533452 200.40694892313942 L 530.1440469533452 261.43354256061997 L 417.28110996714 261.43354256061997" stroke="rgb(0, 150, 0)" fill="none" stroke-width="1.881477377848px" stroke-linecap="round" stroke-linejoin="round"/></g><g class="trace" data-circuit-json-type="schematic_trace" data-schematic-trace-id="schematic_trace_1"><path d="M 530.1954583226948 284.83058864114054 L 530.1954583226948 261.43354256061997 L 417.28110996714 261.43354256061997" class="trace-invisible-hover-outline" stroke="rgb(0, 150, 0)" fill="none" stroke-width="15.051819022784px" stroke-linecap="round" opacity="0" stroke-linejoin="round"/><path d="M 530.1954583226948 284.83058864114054 L 530.1954583226948 261.43354256061997 L 417.28110996714 261.43354256061997" stroke="rgb(0, 150, 0)" fill="none" stroke-width="1.881477377848px" stroke-linecap="round" stroke-linejoin="round"/><circle cx="530.1440469533452" cy="261.43354256061997" r="2.822216066772" class="trace-junction" fill="rgb(0, 150, 0)"/></g><g class="trace" data-circuit-json-type="schematic_trace" data-schematic-trace-id="schematic_trace_2"><path class="trace-crossing-outline" d="M 454.88495183942524 257.905772477155 Q 449.9460737225743 261.43354256061997 454.88495183942524 264.96131264408496" stroke="rgb(245, 241, 237)" fill="none" stroke-width="2.822216066772px" stroke-linecap="round"/><path d="M 454.88495183942524 257.905772477155 Q 449.9460737225743 261.43354256061997 454.88495183942524 264.96131264408496" stroke="rgb(0, 150, 0)" fill="none" stroke-width="1.881477377848px" stroke-linecap="round"/><path d="M 454.88495183942524 219.22172270161943 L 454.88495183942524 257.905772477155M 454.88495183942524 264.96131264408496 L 454.88495183942524 280.2483163391 L 417.28110996714 280.2483163391" class="trace-invisible-hover-outline" stroke="rgb(0, 150, 0)" fill="none" stroke-width="15.051819022784px" stroke-linecap="round" opacity="0" stroke-linejoin="round"/><path d="M 454.88495183942524 219.22172270161943 L 454.88495183942524 257.905772477155M 454.88495183942524 264.96131264408496 L 454.88495183942524 280.2483163391 L 417.28110996714 280.2483163391" stroke="rgb(0, 150, 0)" fill="none" stroke-width="1.881477377848px" stroke-linecap="round" stroke-linejoin="round"/></g><g class="trace" data-circuit-json-type="schematic_trace" data-schematic-trace-id="schematic_trace_3"><path class="trace-crossing-outline" d="M 533.6718170368102 256.60842797342053 Q 530.1440469533452 251.66954985656955 526.6162768698803 256.60842797342053" stroke="rgb(245, 241, 237)" fill="none" stroke-width="2.822216066772px" stroke-linecap="round"/><path d="M 533.6718170368102 256.60842797342053 Q 530.1440469533452 251.66954985656955 526.6162768698803 256.60842797342053" stroke="rgb(0, 150, 0)" fill="none" stroke-width="1.881477377848px" stroke-linecap="round"/><path class="trace-crossing-outline" d="M 487.10341043908875 257.905772477155 Q 482.1645323222378 261.43354256061997 487.10341043908875 264.96131264408496" stroke="rgb(245, 241, 237)" fill="none" stroke-width="2.822216066772px" stroke-linecap="round"/><path d="M 487.10341043908875 257.905772477155 Q 482.1645323222378 261.43354256061997 487.10341043908875 264.96131264408496" stroke="rgb(0, 150, 0)" fill="none" stroke-width="1.881477377848px" stroke-linecap="round"/><path d="M 567.7735851029183 397.72688892494835 L 567.7735851029183 256.60842797342053 L 533.6718170368102 256.60842797342053M 526.6162768698803 256.60842797342053 L 487.10341043908875 256.60842797342053 L 487.10341043908875 257.905772477155M 487.10341043908875 264.96131264408496 L 487.10341043908875 299.06309011758 L 417.28110996714 299.06309011758" class="trace-invisible-hover-outline" stroke="rgb(0, 150, 0)" fill="none" stroke-width="15.051819022784px" stroke-linecap="round" opacity="0" stroke-linejoin="round"/><path d="M 567.7735851029183 397.72688892494835 L 567.7735851029183 256.60842797342053 L 533.6718170368102 256.60842797342053M 526.6162768698803 256.60842797342053 L 487.10341043908875 256.60842797342053 L 487.10341043908875 257.905772477155M 487.10341043908875 264.96131264408496 L 487.10341043908875 299.06309011758 L 417.28110996714 299.06309011758" stroke="rgb(0, 150, 0)" fill="none" stroke-width="1.881477377848px" stroke-linecap="round" stroke-linejoin="round"/></g><g class="trace" data-circuit-json-type="schematic_trace" data-schematic-trace-id="schematic_trace_4"><path class="trace-crossing-outline" d="M 533.6718170368102 256.60842797342053 Q 530.1440469533452 251.66954985656955 526.6162768698803 256.60842797342053" stroke="rgb(245, 241, 237)" fill="none" stroke-width="2.822216066772px" stroke-linecap="round"/><path d="M 533.6718170368102 256.60842797342053 Q 530.1440469533452 251.66954985656955 526.6162768698803 256.60842797342053" stroke="rgb(0, 150, 0)" fill="none" stroke-width="1.881477377848px" stroke-linecap="round"/><path class="trace-crossing-outline" d="M 497.2696042103548 257.905772477155 Q 492.33072609350387 261.43354256061997 497.2696042103548 264.96131264408496" stroke="rgb(245, 241, 237)" fill="none" stroke-width="2.822216066772px" stroke-linecap="round"/><path d="M 497.2696042103548 257.905772477155 Q 492.33072609350387 261.43354256061997 497.2696042103548 264.96131264408496" stroke="rgb(0, 150, 0)" fill="none" stroke-width="1.881477377848px" stroke-linecap="round"/><path d="M 661.8474539953183 397.72688892494835 L 661.8474539953183 256.60842797342053 L 533.6718170368102 256.60842797342053M 526.6162768698803 256.60842797342053 L 497.2696042103548 256.60842797342053 L 497.2696042103548 257.905772477155M 497.2696042103548 264.96131264408496 L 497.2696042103548 299.06309011758 L 417.28110996714 299.06309011758" class="trace-invisible-hover-outline" stroke="rgb(0, 150, 0)" fill="none" stroke-width="15.051819022784px" stroke-linecap="round" opacity="0" stroke-linejoin="round"/><path d="M 661.8474539953183 397.72688892494835 L 661.8474539953183 256.60842797342053 L 533.6718170368102 256.60842797342053M 526.6162768698803 256.60842797342053 L 497.2696042103548 256.60842797342053 L 497.2696042103548 257.905772477155M 497.2696042103548 264.96131264408496 L 497.2696042103548 299.06309011758 L 417.28110996714 299.06309011758" stroke="rgb(0, 150, 0)" fill="none" stroke-width="1.881477377848px" stroke-linecap="round" stroke-linejoin="round"/><circle cx="567.7735851029183" cy="256.60842797342053" r="2.822216066772" class="trace-junction" fill="rgb(0, 150, 0)"/><circle cx="497.2696042103548" cy="256.60842797342053" r="2.822216066772" class="trace-junction" fill="rgb(0, 150, 0)"/><circle cx="487.10341043908875" cy="299.06309011758" r="2.822216066772" class="trace-junction" fill="rgb(0, 150, 0)"/></g><g class="trace" data-circuit-json-type="schematic_trace" data-schematic-trace-id="schematic_trace_5"><path class="trace-crossing-outline" d="M 533.6718170368102 256.60842797342053 Q 530.1440469533452 251.66954985656955 526.6162768698803 256.60842797342053" stroke="rgb(245, 241, 237)" fill="none" stroke-width="2.822216066772px" stroke-linecap="round"/><path d="M 533.6718170368102 256.60842797342053 Q 530.1440469533452 251.66954985656955 526.6162768698803 256.60842797342053" stroke="rgb(0, 150, 0)" fill="none" stroke-width="1.881477377848px" stroke-linecap="round"/><path class="trace-crossing-outline" d="M 497.2696042103548 257.905772477155 Q 492.33072609350387 261.43354256061997 497.2696042103548 264.96131264408496" stroke="rgb(245, 241, 237)" fill="none" stroke-width="2.822216066772px" stroke-linecap="round"/><path d="M 497.2696042103548 257.905772477155 Q 492.33072609350387 261.43354256061997 497.2696042103548 264.96131264408496" stroke="rgb(0, 150, 0)" fill="none" stroke-width="1.881477377848px" stroke-linecap="round"/><path d="M 755.9213228877184 397.72688892494835 L 755.9213228877184 256.60842797342053 L 533.6718170368102 256.60842797342053M 526.6162768698803 256.60842797342053 L 497.2696042103548 256.60842797342053 L 497.2696042103548 257.905772477155M 497.2696042103548 264.96131264408496 L 497.2696042103548 299.06309011758 L 417.28110996714 299.06309011758" class="trace-invisible-hover-outline" stroke="rgb(0, 150, 0)" fill="none" stroke-width="15.051819022784px" stroke-linecap="round" opacity="0" stroke-linejoin="round"/><path d="M 755.9213228877184 397.72688892494835 L 755.9213228877184 256.60842797342053 L 533.6718170368102 256.60842797342053M 526.6162768698803 256.60842797342053 L 497.2696042103548 256.60842797342053 L 497.2696042103548 257.905772477155M 497.2696042103548 264.96131264408496 L 497.2696042103548 299.06309011758 L 417.28110996714 299.06309011758" stroke="rgb(0, 150, 0)" fill="none" stroke-width="1.881477377848px" stroke-linecap="round" stroke-linejoin="round"/><circle cx="567.7735851029183" cy="256.60842797342053" r="2.822216066772" class="trace-junction" fill="rgb(0, 150, 0)"/><circle cx="661.8474539953183" cy="256.60842797342053" r="2.822216066772" class="trace-junction" fill="rgb(0, 150, 0)"/><circle cx="497.2696042103548" cy="256.60842797342053" r="2.822216066772" class="trace-junction" fill="rgb(0, 150, 0)"/><circle cx="497.2696042103548" cy="299.06309011758" r="2.822216066772" class="trace-junction" fill="rgb(0, 150, 0)"/><circle cx="487.10341043908875" cy="299.06309011758" r="2.822216066772" class="trace-junction" fill="rgb(0, 150, 0)"/></g><g class="trace" data-circuit-json-type="schematic_trace" data-schematic-trace-id="schematic_trace_6"><path class="trace-crossing-outline" d="M 533.6718170368102 256.60842797342053 Q 530.1440469533452 251.66954985656955 526.6162768698803 256.60842797342053" stroke="rgb(245, 241, 237)" fill="none" stroke-width="2.822216066772px" stroke-linecap="round"/><path d="M 533.6718170368102 256.60842797342053 Q 530.1440469533452 251.66954985656955 526.6162768698803 256.60842797342053" stroke="rgb(0, 150, 0)" fill="none" stroke-width="1.881477377848px" stroke-linecap="round"/><path class="trace-crossing-outline" d="M 497.2696042103548 257.905772477155 Q 492.33072609350387 261.43354256061997 497.2696042103548 264.96131264408496" stroke="rgb(245, 241, 237)" fill="none" stroke-width="2.822216066772px" stroke-linecap="round"/><path d="M 497.2696042103548 257.905772477155 Q 492.33072609350387 261.43354256061997 497.2696042103548 264.96131264408496" stroke="rgb(0, 150, 0)" fill="none" stroke-width="1.881477377848px" stroke-linecap="round"/><path d="M 849.9951917801184 397.72688892494835 L 849.9951917801184 256.60842797342053 L 533.6718170368102 256.60842797342053M 526.6162768698803 256.60842797342053 L 497.2696042103548 256.60842797342053 L 497.2696042103548 257.905772477155M 497.2696042103548 264.96131264408496 L 497.2696042103548 299.06309011758 L 417.28110996714 299.06309011758" class="trace-invisible-hover-outline" stroke="rgb(0, 150, 0)" fill="none" stroke-width="15.051819022784px" stroke-linecap="round" opacity="0" stroke-linejoin="round"/><path d="M 849.9951917801184 397.72688892494835 L 849.9951917801184 256.60842797342053 L 533.6718170368102 256.60842797342053M 526.6162768698803 256.60842797342053 L 497.2696042103548 256.60842797342053 L 497.2696042103548 257.905772477155M 497.2696042103548 264.96131264408496 L 497.2696042103548 299.06309011758 L 417.28110996714 299.06309011758" stroke="rgb(0, 150, 0)" fill="none" stroke-width="1.881477377848px" stroke-linecap="round" stroke-linejoin="round"/><circle cx="567.7735851029183" cy="256.60842797342053" r="2.822216066772" class="trace-junction" fill="rgb(0, 150, 0)"/><circle cx="661.8474539953183" cy="256.60842797342053" r="2.822216066772" class="trace-junction" fill="rgb(0, 150, 0)"/><circle cx="755.9213228877184" cy="256.60842797342053" r="2.822216066772" class="trace-junction" fill="rgb(0, 150, 0)"/><circle cx="497.2696042103548" cy="256.60842797342053" r="2.822216066772" class="trace-junction" fill="rgb(0, 150, 0)"/><circle cx="497.2696042103548" cy="299.06309011758" r="2.822216066772" class="trace-junction" fill="rgb(0, 150, 0)"/><circle cx="487.10341043908875" cy="299.06309011758" r="2.822216066772" class="trace-junction" fill="rgb(0, 150, 0)"/></g><g class="schematic-port-hover" data-schematic-port-id="source_port_0"><circle cx="417.28110996714" cy="261.43354256061997" r="3.762954755696" fill="red" opacity="0"/></g><g class="schematic-port-hover" data-schematic-port-id="source_port_1"><circle cx="417.28110996714" cy="280.2483163391" r="3.762954755696" fill="red" opacity="0"/></g><g class="schematic-port-hover" data-schematic-port-id="source_port_2"><circle cx="417.28110996714" cy="299.06309011758" r="3.762954755696" fill="red" opacity="0"/></g><g class="schematic-port-hover" data-schematic-port-id="source_port_3"><circle cx="530.1954583226948" cy="96.68285085634054" r="3.762954755696" fill="red" opacity="0"/></g><g class="schematic-port-hover" data-schematic-port-id="source_port_4"><circle cx="530.1440469533452" cy="200.40694892313942" r="3.762954755696" fill="red" opacity="0"/></g><g class="schematic-port-hover" data-schematic-port-id="source_port_5"><circle cx="530.1954583226948" cy="284.83058864114054" r="3.762954755696" fill="red" opacity="0"/></g><g class="schematic-port-hover" data-schematic-port-id="source_port_6"><circle cx="530.1440469533452" cy="388.5546867079394" r="3.762954755696" fill="red" opacity="0"/></g><g class="schematic-port-hover" data-schematic-port-id="source_port_7"><circle cx="454.88495183942524" cy="219.22172270161943" r="3.762954755696" fill="red" opacity="0"/></g><g class="schematic-port-hover" data-schematic-port-id="source_port_8"><circle cx="454.9363632087748" cy="115.49762463482054" r="3.762954755696" fill="red" opacity="0"/></g><g class="schematic-port-hover" data-schematic-port-id="source_port_9"><circle cx="567.7735851029183" cy="397.72688892494835" r="3.762954755696" fill="red" opacity="0"/></g><g class="schematic-port-hover" data-schematic-port-id="source_port_10"><circle cx="567.8250152870418" cy="501.4356717658916" r="3.762954755696" fill="red" opacity="0"/></g><g class="schematic-port-hover" data-schematic-port-id="source_port_11"><circle cx="661.8474539953183" cy="397.72688892494835" r="3.762954755696" fill="red" opacity="0"/></g><g class="schematic-port-hover" data-schematic-port-id="source_port_12"><circle cx="661.8988841794417" cy="501.4356717658916" r="3.762954755696" fill="red" opacity="0"/></g><g class="schematic-port-hover" data-schematic-port-id="source_port_13"><circle cx="755.9213228877184" cy="397.72688892494835" r="3.762954755696" fill="red" opacity="0"/></g><g class="schematic-port-hover" data-schematic-port-id="source_port_14"><circle cx="755.9727530718417" cy="501.4356717658916" r="3.762954755696" fill="red" opacity="0"/></g><g class="schematic-port-hover" data-schematic-port-id="source_port_15"><circle cx="849.9951917801184" cy="397.72688892494835" r="3.762954755696" fill="red" opacity="0"/></g><g class="schematic-port-hover" data-schematic-port-id="source_port_16"><circle cx="850.0466219642417" cy="501.4356717658916" r="3.762954755696" fill="red" opacity="0"/></g><rect class="component-overlay" x="521.4103230392435" y="56.747703291017984" width="17.4299593914493" height="38.529072483922306" fill="transparent"/><path d="M 529.9876115167641 56.747703291017984 L 521.4103230392435 74.72246327199711" stroke="rgb(132, 0, 0)" fill="none" stroke-width="1.881477377848px" stroke-linecap="round"/><path d="M 530.2629939531726 56.757073048359665 L 538.8402824306928 74.73188006627325" stroke="rgb(132, 0, 0)" fill="none" stroke-width="1.881477377848px" stroke-linecap="round"/><path d="M 530.0868688558323 57.221995515812836 L 530.0868688558323 95.27677577494029" stroke="rgb(132, 0, 0)" fill="none" stroke-width="1.881477377848px" stroke-linecap="round"/><text x="529.6660858476633" y="51.234861685280755" fill="rgb(15, 15, 15)" font-family="sans-serif" text-anchor="middle" dominant-baseline="ideographic" font-size="16.933296400632px">VCC</text><rect class="component-overlay" x="508.48447937955905" y="388.45275767099446" width="42.26939306676263" height="45.47807399433162" fill="transparent"/><path d="M 530.0418639169544 388.45275767099446 L 530.0418639169544 419.46264692515047" stroke="rgb(132, 0, 0)" fill="none" stroke-width="1.881477377848px" stroke-linecap="round"/><path d="M 508.48447937955905 419.45956130225085 L 550.7538724463217 419.45956130225085" stroke="rgb(132, 0, 0)" fill="none" stroke-width="1.881477377848px" stroke-linecap="round"/><path d="M 513.7681570406745 426.69519648378855 L 545.4701947852062 426.6951964837885" stroke="rgb(132, 0, 0)" fill="none" stroke-width="1.881477377848px" stroke-linecap="round"/><path d="M 524.3355029555185 433.9308316653261 L 534.9028488703625 433.9308316653261" stroke="rgb(132, 0, 0)" fill="none" stroke-width="1.881477377848px" stroke-linecap="round"/><text x="528.0159643355827" y="444.9497885951749" fill="rgb(15, 15, 15)" font-family="sans-serif" text-anchor="middle" dominant-baseline="hanging" font-size="16.933296400632px">GND</text><rect class="component-overlay" x="446.15122792532355" y="75.56247706949799" width="17.429959391449245" height="38.529072483922306" fill="transparent"/><path d="M 454.7285164028441 75.56247706949799 L 446.15122792532355 93.53723705047712" stroke="rgb(132, 0, 0)" fill="none" stroke-width="1.881477377848px" stroke-linecap="round"/><path d="M 455.0038988392526 75.57184682683967 L 463.5811873167728 93.54665384475325" stroke="rgb(132, 0, 0)" fill="none" stroke-width="1.881477377848px" stroke-linecap="round"/><path d="M 454.8277737419123 76.03676929429284 L 454.8277737419123 114.0915495534203" stroke="rgb(132, 0, 0)" fill="none" stroke-width="1.881477377848px" stroke-linecap="round"/><text x="454.4069907337433" y="70.04963546376075" fill="rgb(15, 15, 15)" font-family="sans-serif" text-anchor="middle" dominant-baseline="ideographic" font-size="16.933296400632px">VCC</text><rect class="component-overlay" x="546.1654477132555" y="501.3337427289467" width="42.26939306676263" height="45.47807399433162" fill="transparent"/><path d="M 567.7228322506509 501.3337427289467 L 567.7228322506509 532.3436319831027" stroke="rgb(132, 0, 0)" fill="none" stroke-width="1.881477377848px" stroke-linecap="round"/><path d="M 546.1654477132555 532.3405463602031 L 588.4348407800181 532.3405463602031" stroke="rgb(132, 0, 0)" fill="none" stroke-width="1.881477377848px" stroke-linecap="round"/><path d="M 551.449125374371 539.5761815417408 L 583.1511631189027 539.5761815417408" stroke="rgb(132, 0, 0)" fill="none" stroke-width="1.881477377848px" stroke-linecap="round"/><path d="M 562.0164712892149 546.8118167232783 L 572.583817204059 546.8118167232783" stroke="rgb(132, 0, 0)" fill="none" stroke-width="1.881477377848px" stroke-linecap="round"/><text x="565.6969326692791" y="557.830773653127" fill="rgb(15, 15, 15)" font-family="sans-serif" text-anchor="middle" dominant-baseline="hanging" font-size="16.933296400632px">GND</text><rect class="component-overlay" x="640.2393166056555" y="501.3337427289467" width="42.26939306676263" height="45.47807399433162" fill="transparent"/><path d="M 661.7967011430509 501.3337427289467 L 661.7967011430509 532.3436319831027" stroke="rgb(132, 0, 0)" fill="none" stroke-width="1.881477377848px" stroke-linecap="round"/><path d="M 640.2393166056555 532.3405463602031 L 682.5087096724181 532.3405463602031" stroke="rgb(132, 0, 0)" fill="none" stroke-width="1.881477377848px" stroke-linecap="round"/><path d="M 645.522994266771 539.5761815417408 L 677.2250320113027 539.5761815417408" stroke="rgb(132, 0, 0)" fill="none" stroke-width="1.881477377848px" stroke-linecap="round"/><path d="M 656.0903401816149 546.8118167232783 L 666.657686096459 546.8118167232783" stroke="rgb(132, 0, 0)" fill="none" stroke-width="1.881477377848px" stroke-linecap="round"/><text x="659.7708015616791" y="557.830773653127" fill="rgb(15, 15, 15)" font-family="sans-serif" text-anchor="middle" dominant-baseline="hanging" font-size="16.933296400632px">GND</text><rect class="component-overlay" x="734.3131854980555" y="501.3337427289467" width="42.26939306676263" height="45.47807399433162" fill="transparent"/><path d="M 755.8705700354509 501.3337427289467 L 755.8705700354509 532.3436319831027" stroke="rgb(132, 0, 0)" fill="none" stroke-width="1.881477377848px" stroke-linecap="round"/><path d="M 734.3131854980555 532.3405463602031 L 776.5825785648182 532.3405463602031" stroke="rgb(132, 0, 0)" fill="none" stroke-width="1.881477377848px" stroke-linecap="round"/><path d="M 739.596863159171 539.5761815417408 L 771.2989009037027 539.5761815417408" stroke="rgb(132, 0, 0)" fill="none" stroke-width="1.881477377848px" stroke-linecap="round"/><path d="M 750.1642090740149 546.8118167232783 L 760.731554988859 546.8118167232783" stroke="rgb(132, 0, 0)" fill="none" stroke-width="1.881477377848px" stroke-linecap="round"/><text x="753.8446704540792" y="557.830773653127" fill="rgb(15, 15, 15)" font-family="sans-serif" text-anchor="middle" dominant-baseline="hanging" font-size="16.933296400632px">GND</text><rect class="component-overlay" x="828.3870543904555" y="501.3337427289467" width="42.26939306676263" height="45.47807399433162" fill="transparent"/><path d="M 849.9444389278509 501.3337427289467 L 849.9444389278509 532.3436319831027" stroke="rgb(132, 0, 0)" fill="none" stroke-width="1.881477377848px" stroke-linecap="round"/><path d="M 828.3870543904555 532.3405463602031 L 870.6564474572182 532.3405463602031" stroke="rgb(132, 0, 0)" fill="none" stroke-width="1.881477377848px" stroke-linecap="round"/><path d="M 833.670732051571 539.5761815417408 L 865.3727697961027 539.5761815417408" stroke="rgb(132, 0, 0)" fill="none" stroke-width="1.881477377848px" stroke-linecap="round"/><path d="M 844.238077966415 546.8118167232783 L 854.805423881259 546.8118167232783" stroke="rgb(132, 0, 0)" fill="none" stroke-width="1.881477377848px" stroke-linecap="round"/><text x="847.9185393464792" y="557.830773653127" fill="rgb(15, 15, 15)" font-family="sans-serif" text-anchor="middle" dominant-baseline="hanging" font-size="16.933296400632px">GND</text></svg>